<svg xmlns="http://www.w3.org/2000/svg" xmlns:xlink="http://www.w3.org/1999/xlink" width="40" zoomAndPan="magnify" viewBox="0 0 30 30" height="40" preserveAspectRatio="xMidYMid meet" version="1.0"><defs><clipPath id="f3198776b9"><path d="M 112.5 131.25 L 178 131.25 L 178 243.75 L 112.5 243.75 Z M 112.5 131.25 " clip-rule="nonzero"/></clipPath><clipPath id="9e266e6911"><path d="M 168 131.25 L 233 131.25 L 233 243.75 L 168 243.75 Z M 168 131.25 " clip-rule="nonzero"/></clipPath><clipPath id="b163fa5e63"><path d="M 224 132 L 262.5 132 L 262.5 199 L 224 199 Z M 224 132 " clip-rule="nonzero"/></clipPath></defs><rect x="-37.5" width="450" fill="#ffffff" y="-37.499999" height="449.999989" fill-opacity="1"/><rect x="-37.5" width="450" fill="#ffffff" y="-37.499999" height="449.999989" fill-opacity="1"/><g clip-path="url(#f3198776b9)"><path fill="#12153e" d="M 131.023438 131.277344 L 177.203125 211.269531 L 158.683594 243.351562 L 112.5 163.355469 Z M 131.023438 131.277344 " fill-opacity="1" fill-rule="evenodd"/></g><g clip-path="url(#9e266e6911)"><path fill="#12153e" d="M 186.796875 131.640625 L 232.984375 211.632812 L 214.457031 243.714844 L 168.277344 163.71875 Z M 186.796875 131.640625 " fill-opacity="1" fill-rule="evenodd"/></g><g clip-path="url(#b163fa5e63)"><path fill="#12153e" d="M 243.101562 132.917969 L 262.492188 166.507812 L 243.972656 198.585938 L 224.582031 165 Z M 243.101562 132.917969 " fill-opacity="1" fill-rule="evenodd"/></g></svg>